<svg width="48" height="48" viewBox="0 0 48 48" fill="none" xmlns="http://www.w3.org/2000/svg">
<path d="M24.0001 24L32.6605 28.9999L24.0001 43.9999C35.0457 43.9999 44 35.0457 44 24C44 20.356 43.0206 16.9426 41.3178 13.9998H23.9998L24.0001 24Z" fill="#FBBF12"/>
<path d="M24.0001 4.00003C16.5975 4.00003 10.1392 8.02465 6.68092 14.0025L15.3396 29.0002L24.0001 24.0003V14.0002H41.318C37.8591 8.02376 31.4017 4.00003 24.0001 4.00003Z" fill="url(#paint0_linear_2_9140)"/>
<path d="M4.00012 24C4.00012 35.0457 12.9541 43.9999 24.0001 43.9999L32.6605 28.9999L24.0001 24L15.3396 28.9999L6.68093 14.0022C4.97905 16.9441 4 20.3563 4 23.9997" fill="url(#paint1_linear_2_9140)"/>
<path d="M34.0002 24C34.0002 29.5228 29.5229 34.0001 24.0001 34.0001C18.4772 34.0001 13.9999 29.5228 13.9999 24C13.9999 18.4771 18.4772 13.9998 24.0001 13.9998C29.5229 13.9998 34.0002 18.4771 34.0002 24Z" fill="white"/>
<path d="M32.1252 24C32.1252 28.4873 28.4874 32.1251 24.0001 32.1251C19.5127 32.1251 15.8749 28.4873 15.8749 24C15.8749 19.5127 19.5127 15.8748 24.0001 15.8748C28.4874 15.8748 32.1252 19.5127 32.1252 24Z" fill="#1A73E8"/>
<defs>
<linearGradient id="paint0_linear_2_9140" x1="12.6809" y1="16.5" x2="30.7772" y2="16.5" gradientUnits="userSpaceOnUse">
<stop stop-color="#DB3328"/>
<stop offset="1" stop-color="#E53D30"/>
</linearGradient>
<linearGradient id="paint1_linear_2_9140" x1="11.6218" y1="17.5636" x2="19.0385" y2="30.4098" gradientUnits="userSpaceOnUse">
<stop stop-color="#32A651"/>
<stop offset="1" stop-color="#279847"/>
</linearGradient>
</defs>
</svg>

