<svg width="24" height="24" viewBox="0 0 24 24" fill="none" xmlns="http://www.w3.org/2000/svg">
<path d="M6.00012 7.99988L6.00012 15.9999H14.0001V7.99988L6.00012 7.99988Z" fill="white"/>
<path d="M1.50012 8.49988V15.4999L4.00012 15.9999L6.50012 15.4999V8.49988L4.00012 7.99988L1.50012 8.49988Z" fill="#1E88E5"/>
<path d="M18.5001 11.9999V18.9999C18.5001 19.8284 17.8286 20.4999 17.0001 20.4999H6.50012L6.00012 17.9999L6.50012 15.4999H13.5001V11.9999L16.0001 11.4999L18.5001 11.9999Z" fill="#4CAF50"/>
<path d="M18.5001 4.99988V11.9999H13.5001V8.49988H6.50012L6.00012 5.99988L6.50012 3.49988H17.0001C17.8286 3.49988 18.5001 4.17138 18.5001 4.99988Z" fill="#FBC02D"/>
<path d="M6.50012 15.4999V20.4999H3.00012C2.17162 20.4999 1.50012 19.8284 1.50012 18.9999V15.4999H6.50012Z" fill="#1565C0"/>
<path d="M6.50012 3.49988V8.49988H1.50012L6.50012 3.49988Z" fill="#E53935"/>
<path d="M19.0001 11.9999L18.5001 16.2249L13.5001 11.9999L18.5001 7.7749L19.0001 11.9999Z" fill="#2E7D32"/>
<path d="M23.0001 5.05482V18.9448C23.0001 19.3648 22.5101 19.5998 22.1851 19.3348L18.5001 16.2248V7.77482L22.1851 4.66482C22.5101 4.39982 23.0001 4.63482 23.0001 5.05482Z" fill="#4CAF50"/>
</svg>
