<svg width="24" height="24" viewBox="0 0 24 24" fill="none" xmlns="http://www.w3.org/2000/svg">
<g clip-path="url(#clip0_3_164)">
<path fill-rule="evenodd" clip-rule="evenodd" d="M4.82895 4.20606C5.54282 4.81659 5.81737 4.77832 7.1883 4.72155L20.1103 4.27251C20.384 4.27942 20.1633 4.00068 20.0732 3.95302L17.9694 2.34983C17.5669 2.02069 17.0291 1.64183 15.9784 1.70669L3.46193 2.30254C3.00516 2.33622 2.90841 2.56174 3.08524 2.74892L4.82895 4.20606ZM5.52769 7.23253L5.185 20.8081C5.16658 21.5377 5.52428 21.8199 6.34602 21.7955L20.5465 21.3329C21.3686 21.3085 21.4728 20.8089 21.4878 20.2163L21.8282 6.73178C21.8431 6.14006 21.6235 5.81522 21.1198 5.84807L6.27993 6.33929C5.73191 6.37144 5.54264 6.64039 5.52769 7.23253ZM19.5076 8.31411C19.5881 8.72681 19.4868 9.13459 19.0745 9.17031L18.3878 9.28917L18.1348 19.3116C17.5336 19.6154 16.982 19.7839 16.5262 19.7724C15.7964 19.754 15.6194 19.5214 15.09 18.8246L10.7981 11.6961L10.6267 18.484L12.0328 18.8388C12.0328 18.8388 12.0121 19.6584 10.8712 19.6296L7.72132 19.7327C7.63456 19.5479 7.73741 19.0951 8.05876 19.0119L8.88525 18.8052L9.11181 9.83025L7.97455 9.71013C7.89349 9.2974 8.13607 8.71137 8.776 8.68165L12.156 8.53934L16.6274 15.7638L16.7861 9.47668L15.6038 9.31064C15.5254 8.80665 15.8988 8.45152 16.3559 8.41786L19.5076 8.31411ZM2.44401 1.04611L15.4634 0.417145C17.0627 0.320563 17.4709 0.422617 18.4555 1.17652L22.5302 4.19683C23.202 4.71547 23.4267 4.85773 23.4129 5.40428L23.0093 21.3951C22.984 22.3972 22.6038 22.9807 21.3252 23.0392L6.21088 23.5696C5.25156 23.5911 4.79901 23.4429 4.31333 22.7921L1.35857 18.7515C0.829654 18.0082 0.615799 17.4566 0.631918 16.818L0.990716 2.60434C1.0114 1.78481 1.39385 1.11038 2.44401 1.04611Z" fill="black"/>
</g>
<defs>
<clipPath id="clip0_3_164">
<rect width="24" height="24" fill="white"/>
</clipPath>
</defs>
</svg>
