<svg width="24" height="24" viewBox="0 0 24 24" fill="none" xmlns="http://www.w3.org/2000/svg">
<g clip-path="url(#clip0_3_171)">
<path fill-rule="evenodd" clip-rule="evenodd" d="M8.80653 0.000183072C8.17083 0.000961272 7.56146 0.254172 7.11241 0.70414C6.66336 1.15411 6.41139 1.76399 6.41191 2.39969C6.41165 2.71454 6.47341 3.02636 6.59366 3.31735C6.71391 3.60833 6.8903 3.87278 7.11275 4.09559C7.3352 4.31841 7.59936 4.49523 7.89015 4.61595C8.18094 4.73668 8.49265 4.79895 8.8075 4.7992L11.2031 4.7992L11.2031 2.40067C11.2034 1.76462 10.9511 1.15449 10.5017 0.704367C10.0523 0.254244 9.44258 0.000961219 8.80653 0.000183072C8.8075 0.000183072 8.8075 0.000183072 8.80653 0.000183072ZM8.80653 6.40018L2.42023 6.40018C2.10537 6.40044 1.79366 6.46271 1.50287 6.58343C1.21208 6.70416 0.947924 6.88098 0.725473 7.10379C0.503021 7.32661 0.326634 7.59106 0.206383 7.88204C0.0861324 8.17302 0.0243724 8.48484 0.0246295 8.79969C0.0242438 9.11454 0.0858764 9.42639 0.206008 9.71742C0.326141 10.0085 0.502419 10.273 0.72478 10.4959C0.947141 10.7188 1.21123 10.8957 1.50197 11.0166C1.7927 11.1374 2.1044 11.1998 2.41925 11.2002L8.80653 11.2002C9.12138 11.1999 9.4331 11.1377 9.72388 11.0169C10.0147 10.8962 10.2788 10.7194 10.5013 10.4966C10.7237 10.2738 10.9001 10.0093 11.0204 9.71833C11.1406 9.42734 11.2024 9.11552 11.2021 8.80067C11.2025 8.48574 11.1408 8.17381 11.0207 7.88272C10.9005 7.59162 10.7241 7.32706 10.5016 7.10414C10.2792 6.88122 10.015 6.70432 9.72411 6.58353C9.43326 6.46274 9.12146 6.40044 8.80653 6.40018Z" fill="#36C5F0"/>
<path fill-rule="evenodd" clip-rule="evenodd" d="M23.9767 8.79963C23.9769 8.48478 23.9152 8.17296 23.7949 7.88198C23.6747 7.591 23.4983 7.32655 23.2758 7.10373C23.0534 6.88092 22.7892 6.7041 22.4984 6.58337C22.2076 6.46265 21.8959 6.40038 21.5811 6.40012C21.2662 6.40038 20.9545 6.46265 20.6637 6.58337C20.3729 6.7041 20.1088 6.88092 19.8863 7.10373C19.6639 7.32655 19.4875 7.591 19.3672 7.88198C19.247 8.17296 19.1852 8.48478 19.1855 8.79963L19.1855 11.2001L21.5811 11.2001C21.896 11.1999 22.2078 11.1376 22.4986 11.0168C22.7895 10.896 23.0537 10.7191 23.2762 10.4962C23.4986 10.2732 23.675 10.0087 23.7952 9.71759C23.9154 9.42649 23.977 9.11457 23.9767 8.79963ZM17.5894 8.79963L17.5894 2.39963C17.5899 1.76393 17.3379 1.15405 16.8889 0.704079C16.4398 0.254111 15.8305 0.000900257 15.1948 0.000122061C14.8799 0.000378979 14.5682 0.062648 14.2774 0.183374C13.9866 0.304099 13.7225 0.480918 13.5 0.703733C13.2776 0.926548 13.1012 1.191 12.9809 1.48198C12.8607 1.77296 12.7989 2.08478 12.7992 2.39963L12.7992 8.79963C12.7988 9.11448 12.8604 9.42633 12.9805 9.71736C13.1007 10.0084 13.277 10.2729 13.4993 10.4958C13.7217 10.7187 13.9858 10.8957 14.2765 11.0165C14.5672 11.1373 14.8789 11.1997 15.1938 11.2001C15.5087 11.1999 15.8205 11.1376 16.1114 11.0168C16.4022 10.896 16.6664 10.7191 16.8889 10.4962C17.1113 10.2732 17.2877 10.0087 17.4079 9.71759C17.5281 9.42649 17.5898 9.11457 17.5894 8.79963Z" fill="#2EB67D"/>
<path fill-rule="evenodd" clip-rule="evenodd" d="M15.1938 24.0002C15.5086 24 15.8203 23.9377 16.1111 23.817C16.4019 23.6963 16.6661 23.5194 16.8885 23.2966C17.111 23.0738 17.2873 22.8094 17.4076 22.5184C17.5278 22.2274 17.5896 21.9156 17.5893 21.6007C17.5896 21.2859 17.5278 20.9741 17.4076 20.6831C17.2873 20.3921 17.111 20.1276 16.8885 19.9048C16.6661 19.682 16.4019 19.5052 16.1111 19.3845C15.8203 19.2637 15.5086 19.2015 15.1938 19.2012L12.7982 19.2012L12.7982 21.6007C12.7979 22.2365 13.0501 22.8464 13.4993 23.2963C13.9485 23.7463 14.558 23.9995 15.1938 24.0002ZM15.1938 17.5993L21.581 17.5993C21.8959 17.599 22.2076 17.5367 22.4984 17.416C22.7892 17.2953 23.0533 17.1185 23.2758 16.8956C23.4982 16.6728 23.6746 16.4084 23.7949 16.1174C23.9151 15.8264 23.9769 15.5146 23.9766 15.1997C23.977 14.8849 23.9154 14.573 23.7952 14.282C23.6751 13.991 23.4988 13.7265 23.2765 13.5036C23.0541 13.2807 22.79 13.1037 22.4993 12.9829C22.2086 12.862 21.8969 12.7996 21.582 12.7993L15.1947 12.7993C14.8799 12.7995 14.5682 12.8618 14.2774 12.9825C13.9866 13.1032 13.7224 13.2801 13.5 13.5029C13.2775 13.7257 13.1011 13.9901 12.9809 14.2811C12.8606 14.5721 12.7989 14.8839 12.7991 15.1988C12.7987 15.5136 12.8604 15.8255 12.9805 16.1165C13.1006 16.4075 13.2769 16.672 13.4993 16.895C13.7216 17.1179 13.9857 17.2948 14.2765 17.4156C14.5672 17.5365 14.8789 17.5989 15.1938 17.5993Z" fill="#ECB22E"/>
<path fill-rule="evenodd" clip-rule="evenodd" d="M0.024598 15.1997C0.0243409 15.5146 0.0861008 15.8264 0.206352 16.1174C0.326603 16.4083 0.502989 16.6728 0.725441 16.8956C0.947893 17.1184 1.21205 17.2952 1.50284 17.416C1.79363 17.5367 2.10534 17.599 2.42019 17.5992C2.73505 17.599 3.04676 17.5367 3.33755 17.416C3.62834 17.2952 3.8925 17.1184 4.11495 16.8956C4.3374 16.6728 4.51379 16.4083 4.63404 16.1174C4.75429 15.8264 4.81605 15.5146 4.81579 15.1997L4.81579 12.8002L2.42019 12.8002C2.10534 12.8005 1.79363 12.8627 1.50284 12.9834C1.21205 13.1042 0.947893 13.281 0.725441 13.5038C0.502989 13.7266 0.326603 13.9911 0.206352 14.2821C0.0861008 14.573 0.0243408 14.8849 0.024598 15.1997ZM6.41188 15.1997L6.41188 21.5997C6.41149 21.9146 6.47312 22.2264 6.59326 22.5174C6.71339 22.8085 6.88967 23.073 7.11203 23.2959C7.33439 23.5188 7.59848 23.6957 7.88921 23.8166C8.17995 23.9374 8.49164 23.9998 8.80649 24.0002C9.12135 23.9999 9.43306 23.9377 9.72385 23.8169C10.0146 23.6962 10.2788 23.5194 10.5012 23.2966C10.7237 23.0738 10.9001 22.8093 11.0203 22.5183C11.1406 22.2274 11.2023 21.9155 11.2021 21.6007L11.2021 15.2017C11.2087 14.8831 11.1516 14.5664 11.0342 14.2701C10.9169 13.9738 10.7416 13.7039 10.5187 13.4762C10.2957 13.2485 10.0296 13.0676 9.73583 12.9441C9.44209 12.8205 9.12665 12.7568 8.80798 12.7567C8.48931 12.7566 8.17382 12.82 7.87998 12.9433C7.58614 13.0666 7.31985 13.2473 7.09672 13.4748C6.87358 13.7023 6.69808 13.9721 6.58048 14.2683C6.46289 14.5644 6.40557 14.8811 6.41188 15.1997C6.41188 15.2007 6.41188 15.1997 6.41188 15.1997Z" fill="#E01E5A"/>
</g>
<defs>
<clipPath id="clip0_3_171">
<rect width="24" height="24" fill="white"/>
</clipPath>
</defs>
</svg>
