<svg width="24" height="24" viewBox="0 0 24 24" fill="none" xmlns="http://www.w3.org/2000/svg">
<g clip-path="url(#clip0_3_174)">
<g clip-path="url(#clip1_3_174)">
<path d="M16.7403 9.20911H22.9395C23.5252 9.20911 24 9.68389 24 10.2696V15.9163C24 18.0688 22.255 19.8138 20.1025 19.8138H20.0841C17.9316 19.8141 16.1863 18.0693 16.186 15.9168C16.186 15.9166 16.186 15.9165 16.186 15.9163V9.76334C16.186 9.45724 16.4342 9.20911 16.7403 9.20911Z" fill="#5059C9"/>
<path d="M20.9302 8.09308C22.3173 8.09308 23.4418 6.96859 23.4418 5.58145C23.4418 4.19432 22.3173 3.06982 20.9302 3.06982C19.5431 3.06982 18.4186 4.19432 18.4186 5.58145C18.4186 6.96859 19.5431 8.09308 20.9302 8.09308Z" fill="#5059C9"/>
<path d="M13.1162 8.09307C15.1199 8.09307 16.7441 6.4688 16.7441 4.46516C16.7441 2.46152 15.1199 0.83725 13.1162 0.83725C11.1126 0.83725 9.48831 2.46152 9.48831 4.46516C9.48831 6.4688 11.1126 8.09307 13.1162 8.09307Z" fill="#7B83EB"/>
<path d="M17.9537 9.20911H7.72073C7.14202 9.22343 6.68423 9.70369 6.69766 10.2824V16.7228C6.61685 20.1957 9.36442 23.0776 12.8372 23.1626C16.31 23.0776 19.0575 20.1957 18.9767 16.7228V10.2824C18.9901 9.70369 18.5324 9.22343 17.9537 9.20911Z" fill="#7B83EB"/>
<path opacity="0.1" d="M13.3954 9.20911V18.2342C13.3926 18.6481 13.1418 19.0199 12.7591 19.1775C12.6372 19.229 12.5063 19.2556 12.374 19.2556H7.18885C7.11629 19.0714 7.04931 18.8872 6.99349 18.6975C6.79812 18.057 6.69843 17.3913 6.69768 16.7217V10.2807C6.68426 9.70294 7.14129 9.22343 7.71907 9.20911H13.3954Z" fill="black"/>
<path opacity="0.2" d="M12.8372 9.20911V18.7924C12.8372 18.9247 12.8106 19.0556 12.7591 19.1775C12.6015 19.5602 12.2297 19.811 11.8158 19.8138H7.45117C7.35629 19.6296 7.26699 19.4454 7.18885 19.2556C7.1107 19.0659 7.04931 18.8872 6.99349 18.6975C6.79812 18.057 6.69843 17.3913 6.69768 16.7217V10.2807C6.68426 9.70294 7.14129 9.22343 7.71907 9.20911H12.8372Z" fill="black"/>
<path opacity="0.2" d="M12.8372 9.20911V17.6761C12.833 18.2384 12.3782 18.6932 11.8158 18.6975H6.99349C6.79812 18.057 6.69843 17.3913 6.69768 16.7217V10.2807C6.68426 9.70294 7.14129 9.22343 7.71907 9.20911H12.8372Z" fill="black"/>
<path opacity="0.2" d="M12.2791 9.20911V17.6761C12.2748 18.2384 11.82 18.6932 11.2577 18.6975H6.99349C6.79812 18.057 6.69843 17.3913 6.69768 16.7217V10.2807C6.68426 9.70294 7.14129 9.22343 7.71907 9.20911H12.2791Z" fill="black"/>
<path opacity="0.1" d="M13.3953 6.32351V8.08165C13.3004 8.08723 13.2111 8.09281 13.1162 8.09281C13.0213 8.09281 12.932 8.08724 12.8371 8.08165C12.6487 8.06915 12.4619 8.03926 12.279 7.99235C11.1487 7.72469 10.215 6.93204 9.76735 5.86026C9.69033 5.68027 9.63054 5.49338 9.58875 5.30212H12.3739C12.9371 5.30426 13.3931 5.76029 13.3953 6.32351Z" fill="black"/>
<path opacity="0.2" d="M12.8372 6.88161V8.08162C12.6488 8.06912 12.462 8.03922 12.2791 7.99232C11.1488 7.72466 10.2151 6.93201 9.76746 5.86023H11.8158C12.379 5.86236 12.8351 6.31841 12.8372 6.88161Z" fill="black"/>
<path opacity="0.2" d="M12.8372 6.88161V8.08162C12.6488 8.06912 12.462 8.03922 12.2791 7.99232C11.1488 7.72466 10.2151 6.93201 9.76746 5.86023H11.8158C12.379 5.86236 12.8351 6.31841 12.8372 6.88161Z" fill="black"/>
<path opacity="0.2" d="M12.2791 6.88162V7.99232C11.1488 7.72466 10.2151 6.93201 9.76746 5.86023H11.2577C11.8209 5.86237 12.2769 6.31842 12.2791 6.88162Z" fill="black"/>
<path d="M1.02306 5.86023H11.256C11.821 5.86023 12.2791 6.31828 12.2791 6.88329V17.1162C12.2791 17.6812 11.821 18.1393 11.256 18.1393H1.02306C0.458037 18.1393 0 17.6812 0 17.1162V6.88329C0 6.31828 0.458048 5.86023 1.02306 5.86023Z" fill="url(#paint0_linear_3_174)"/>
<path d="M8.83195 9.75521H6.78636V15.3254H5.48311V9.75521H3.44702V8.67465H8.83195V9.75521Z" fill="white"/>
</g>
</g>
<defs>
<linearGradient id="paint0_linear_3_174" x1="2.13312" y1="5.06082" x2="10.1459" y2="18.9387" gradientUnits="userSpaceOnUse">
<stop stop-color="#5A62C3"/>
<stop offset="0.5" stop-color="#4D55BD"/>
<stop offset="1" stop-color="#3940AB"/>
</linearGradient>
<clipPath id="clip0_3_174">
<rect width="24" height="24" fill="white"/>
</clipPath>
<clipPath id="clip1_3_174">
<rect width="24" height="22.3256" fill="white" transform="translate(0 0.837219)"/>
</clipPath>
</defs>
</svg>
