<svg width="24" height="24" viewBox="0 0 24 24" fill="none" xmlns="http://www.w3.org/2000/svg">
<g clip-path="url(#clip0_3_151)">
<path d="M0.609093 11.9032C0.609093 5.6656 5.66564 0.609039 11.9032 0.609039C18.1408 0.609039 23.1973 5.6656 23.1973 11.9032C23.1973 18.1408 18.1408 23.1973 11.9032 23.1973C5.66564 23.1973 0.609093 18.1408 0.609093 11.9032Z" fill="#4A8CFF"/>
<mask id="mask0_3_151" style="mask-type:luminance" maskUnits="userSpaceOnUse" x="4" y="8" width="15" height="8">
<path d="M15.1633 10.5129L18.1907 8.30063C18.4549 8.08522 18.6564 8.13528 18.6564 8.53348V15.2797C18.6564 15.7268 18.4048 15.6755 18.1907 15.5126L15.1633 13.3003V10.5129ZM4.91711 8.54979V13.5798C4.91988 14.1258 5.1394 14.6485 5.52738 15.0327C5.91537 15.417 6.44008 15.6315 6.98615 15.6289H14.3216C14.4207 15.6294 14.5161 15.5902 14.5866 15.5204C14.657 15.4506 14.697 15.3556 14.6975 15.2564V10.2264C14.6948 9.68037 14.4753 9.15775 14.0873 8.77347C13.6993 8.3892 13.1746 8.17472 12.6286 8.17719H5.29319C5.19396 8.17688 5.09865 8.21593 5.02816 8.28577C4.95766 8.35561 4.91774 8.45055 4.91711 8.54979Z" fill="white"/>
</mask>
<g mask="url(#mask0_3_151)">
<path d="M4.33498 7.59503H19.2386V16.2111H4.33498V7.59503Z" fill="white"/>
</g>
</g>
<defs>
<clipPath id="clip0_3_151">
<rect width="24" height="24" fill="white"/>
</clipPath>
</defs>
</svg>
